<svg width="149" height="118" viewBox="0 0 149 118" fill="none" xmlns="http://www.w3.org/2000/svg">
<path d="M81.4246 39.0805L94.9261 25.1397C95.3651 25.2888 95.812 25.4137 96.2647 25.5138C97.9156 25.8756 99.8231 26.3516 101.987 25.6406C104.349 24.8646 106.742 23.1704 107.441 20.1932C108.294 16.5328 106.575 13.0919 104.195 10.8567C102.868 9.6108 101.397 9.59842 100.59 9.52731C100.349 9.50808 100.109 9.47196 99.8726 9.41915C99.7959 9.24186 99.7299 9.06016 99.6747 8.87504C99.4645 8.1918 99.2079 6.93355 97.9496 5.87314C95.903 4.13878 92.796 2.17869 89.2253 3.35966C85.4597 4.60865 83.914 8.26906 83.2956 11.237C82.9679 12.8415 83.3791 13.8277 83.6512 14.7335L67.5101 31.5887C66.3663 31.6413 60.8756 31.7804 56.4331 33.2922C51.5313 35.0221 46.9542 37.5615 42.892 40.8047C39.0214 43.955 35.092 48.0111 33.2154 52.1105C31.209 56.4819 31.7284 60.9774 31.7284 60.9774" stroke="black" stroke-width="4.27339" stroke-linecap="round" stroke-linejoin="round"/>
<path d="M111.378 41.8005C87.5819 29.3594 53.6718 49.6643 48.4356 54.4632C42.6606 59.756 32.4306 61.2276 28.3065 61.7222C24.1823 62.2169 7.35497 66.8387 4.05318 79.7058C0.751392 92.5729 5.9081 99.0374 9.94877 102.537C21.6967 112.739 33.3334 115.466 67.4055 115.466C95.0935 115.454 108.712 112.019 122.862 98.4252C131.165 90.4502 138.189 71.0187 123.991 52.8166" stroke="black" stroke-width="4.27339" stroke-linecap="round" stroke-linejoin="round"/>
<path d="M109.097 85.6324C111.285 83.7169 113.27 81.5806 115.02 79.2576C115.02 79.2576 115.453 78.4352 115.948 77.4026C116.52 76.2928 116.972 75.1247 117.296 73.9184C118.075 70.6599 117.744 67.6395 117.84 65.0828C117.936 62.5261 117.966 58.6863 117.976 57.6383L133.152 41.1943C133.591 41.3429 134.038 41.4678 134.491 41.5684C136.142 41.9301 138.04 42.4061 140.213 41.6951C142.585 40.9191 144.971 39.2219 145.667 36.2509C146.52 32.5874 144.804 29.1403 142.421 26.9051C141.094 25.6685 139.623 25.6437 138.816 25.5726C138.575 25.5539 138.335 25.5188 138.099 25.4675C138.023 25.2889 137.957 25.1062 137.901 24.9203C137.694 24.2401 137.434 22.9788 136.176 21.9184C134.129 20.184 131.022 18.2271 127.451 19.4081C123.677 20.6447 122.128 24.3175 121.525 27.2854C121.194 28.8899 121.605 29.876 121.877 30.7819L105.739 47.6401C104.592 47.6927 99.1017 47.8318 94.6592 49.3436C89.7573 51.0746 85.1802 53.615 81.1181 56.8592C77.2475 60.0064 73.2965 64.0533 71.4415 68.162C68.4458 74.8057 68.9683 81.0043 71.9485 85.6787" stroke="black" stroke-width="4.27339" stroke-linecap="round" stroke-linejoin="round"/>
<path d="M14.7695 85.6972C17.2953 78.6794 23.9484 73.3309 31.3434 72.3602" stroke="black" stroke-width="4.27339" stroke-linecap="round" stroke-linejoin="round"/>
</svg>
