<svg width="149" height="117" viewBox="0 0 149 117" fill="none" xmlns="http://www.w3.org/2000/svg">
<path fill-rule="evenodd" clip-rule="evenodd" d="M107.441 19.4603C106.742 22.4375 104.349 24.1317 101.987 24.9077C99.8231 25.6187 97.9156 25.1426 96.2648 24.7809C95.812 24.6808 95.3651 24.5559 94.9261 24.4068L79.7558 40.8509C79.7558 41.8958 79.7156 45.754 79.6198 48.2953C79.5239 50.8366 79.8547 53.8601 79.0757 57.1279C78.7514 58.3349 78.2996 59.5039 77.7277 60.6152C77.2362 61.654 76.8003 62.4701 76.8003 62.4701C76.6447 62.7653 76.432 63.0265 76.1746 63.2388C75.9172 63.4511 75.6202 63.6102 75.3009 63.7068L75.2267 63.7253V63.7655H75.0628C74.7383 63.8304 74.4042 63.8304 74.0797 63.7655H33.1876V63.2956C32.9528 63.1856 32.736 63.0407 32.5446 62.8659C32.2955 62.6381 32.0949 62.3625 31.9547 62.0555C31.8145 61.7485 31.7375 61.4163 31.7284 61.0789C31.7284 61.0789 31.209 55.749 33.2154 51.3776C35.092 47.2782 39.0214 43.2221 42.892 40.0718C46.9542 36.8286 51.5313 34.2892 56.4331 32.5593C60.8756 31.0475 66.3663 30.9084 67.5101 30.8558L83.6512 14.0006C83.3791 13.0948 82.9679 12.1086 83.2957 10.504C83.914 7.53615 85.4597 3.87574 89.2253 2.62675C92.796 1.44578 95.903 3.40587 97.9496 5.14023C99.2079 6.20064 99.4645 7.45889 99.6747 8.14213C99.7299 8.32725 99.7959 8.50895 99.8726 8.68624C100.109 8.73905 100.349 8.77517 100.59 8.7944C101.397 8.86551 102.868 8.87789 104.195 10.1238C106.575 12.359 108.294 15.7999 107.441 19.4603Z" fill="#BF8E45" stroke="black" stroke-width="4.27339" stroke-linecap="round" stroke-linejoin="round"/>
<path fill-rule="evenodd" clip-rule="evenodd" d="M122.862 97.6924C132.099 88.8196 139.754 65.7658 118.361 46.0015C94.8647 24.2832 54.2107 48.4376 48.4356 53.7304C42.6606 59.0231 32.4306 60.4947 28.3065 60.9894C24.1823 61.484 7.35497 66.1059 4.05318 78.9729C0.751391 91.84 5.9081 98.3045 9.94877 101.804C21.6967 112.006 33.3334 114.733 67.4055 114.733C95.0935 114.721 108.712 111.286 122.862 97.6924Z" fill="#BF8E45" stroke="black" stroke-width="4.27339" stroke-linecap="round" stroke-linejoin="round"/>
<path fill-rule="evenodd" clip-rule="evenodd" d="M109.097 84.8994C111.285 82.9839 113.27 80.8476 115.02 78.5246C115.02 78.5246 115.453 77.7022 115.948 76.6696C116.52 75.5598 116.972 74.3917 117.296 73.1854C118.075 69.9269 117.744 66.9065 117.84 64.3498C117.936 61.7931 117.966 57.9534 117.976 56.9053L133.152 40.4613C133.591 40.61 134.038 40.7348 134.491 40.8354C136.142 41.1971 138.04 41.6732 140.213 40.9621C142.585 40.1861 144.971 38.4889 145.667 35.5179C146.52 31.8544 144.804 28.4073 142.421 26.1721C141.094 24.9355 139.623 24.9108 138.816 24.8397C138.575 24.821 138.335 24.7858 138.099 24.7345C138.023 24.5559 137.957 24.3732 137.901 24.1873C137.694 23.5072 137.434 22.2458 136.176 21.1854C134.129 19.451 131.022 17.4941 127.451 18.6751C123.677 19.9117 122.128 23.5845 121.525 26.5524C121.194 28.1569 121.605 29.1431 121.877 30.0489L105.739 46.9072C104.592 46.9597 99.1017 47.0989 94.6592 48.6106C89.7573 50.3417 85.1802 52.8821 81.1181 56.1262C77.2475 59.2734 73.2965 63.3203 71.4415 67.429C68.4458 74.0728 68.9683 80.2713 71.9485 84.9458" fill="#BF8E45"/>
<path d="M109.097 84.8994C111.285 82.9839 113.27 80.8476 115.02 78.5246C115.02 78.5246 115.453 77.7022 115.948 76.6696C116.52 75.5598 116.972 74.3917 117.296 73.1854C118.075 69.9269 117.744 66.9065 117.84 64.3498C117.936 61.7931 117.966 57.9534 117.976 56.9053L133.152 40.4613C133.591 40.61 134.038 40.7348 134.491 40.8354C136.142 41.1971 138.04 41.6732 140.213 40.9621C142.585 40.1861 144.971 38.4889 145.667 35.5179C146.52 31.8544 144.804 28.4073 142.421 26.1721C141.094 24.9355 139.623 24.9108 138.816 24.8396C138.575 24.821 138.335 24.7858 138.099 24.7345C138.023 24.5559 137.957 24.3732 137.901 24.1873C137.694 23.5072 137.434 22.2458 136.176 21.1854C134.129 19.451 131.022 17.4941 127.451 18.6751C123.677 19.9117 122.128 23.5845 121.525 26.5524C121.194 28.1569 121.605 29.1431 121.877 30.0489L105.739 46.9072C104.592 46.9597 99.1017 47.0989 94.6592 48.6106C89.7573 50.3417 85.1802 52.8821 81.1181 56.1262C77.2475 59.2734 73.2965 63.3203 71.4415 67.429C68.4458 74.0728 68.9683 80.2713 71.9485 84.9458" stroke="black" stroke-width="4.27339" stroke-linecap="round" stroke-linejoin="round"/>
<path d="M14.7695 84.9643C17.2953 77.9465 23.9484 72.598 31.3434 71.6273L14.7695 84.9643Z" fill="#9C4521"/>
<path d="M14.7695 84.9643C17.2953 77.9465 23.9484 72.598 31.3434 71.6273" stroke="black" stroke-width="4.27339" stroke-linecap="round" stroke-linejoin="round"/>
</svg>
