<svg width="104" height="115" viewBox="0 0 104 115" fill="none" xmlns="http://www.w3.org/2000/svg">
<path fill-rule="evenodd" clip-rule="evenodd" d="M7.32223 95.1077C-4.39174 92.6516 6.8154 72.7984 13.2812 63.1417C25.1061 45.4808 6.38355 36.085 19.468 15.9139C24.1015 8.77939 31.7638 2.1907 40.5778 2.53858C47.3195 2.80549 52.9036 7.109 58.2717 10.8577C65.4056 15.8226 72.9868 20.1117 80.9169 23.6693C90.4266 27.9398 99.6245 34.9394 100.89 44.818C102.024 53.671 95.0391 62.9198 86.2791 66.5485C53.3594 80.1789 24.7612 98.7725 7.32223 95.1077Z" stroke="black" stroke-width="4.13858" stroke-linecap="round" stroke-linejoin="round"/>
<path fill-rule="evenodd" clip-rule="evenodd" d="M101.005 46.4435V46.2695C101.005 45.7837 100.957 45.3009 100.894 44.818C99.6288 34.9394 90.431 27.9398 80.9212 23.6693C72.9911 20.1117 65.4099 15.8226 58.276 10.8577C52.8989 7.109 47.3148 2.80549 40.5821 2.53858C31.7681 2.1907 24.1058 8.77939 19.4724 15.9139C6.37588 36.085 25.1104 45.4808 13.2855 63.1417C8.85003 69.7664 2.18932 81.1895 2.21631 88.501H2.19531L2.41724 104.504C2.31528 108.06 3.6948 110.723 7.51549 111.524C24.9545 115.183 52.3561 96.5982 85.2937 82.9649C93.3909 79.6181 100.57 71.4818 100.645 63.2886L100.99 47.5891C101.002 47.2172 101.014 46.8303 101.005 46.4435Z" stroke="black" stroke-width="4.28749" stroke-miterlimit="10" stroke-linecap="round"/>
<path d="M101.013 46.2622L100.638 63.2964C100.563 71.4895 93.3711 79.6258 85.2859 82.9726C52.3482 96.6059 24.9467 115.191 7.50768 111.532C3.68099 110.731 2.30147 108.068 2.40943 104.511L2.1875 88.5087" stroke="black" stroke-width="4.13858" stroke-linecap="round" stroke-linejoin="round"/>
<path d="M41.9141 25.1938C41.9141 25.1938 55.4994 37.8075 75.8024 43.7275" stroke="black" stroke-width="4.13858" stroke-miterlimit="10" stroke-linecap="round"/>
<path d="M58.0992 36.7847C58.0992 36.7847 49.7021 57.1087 27.5547 72.9852" stroke="black" stroke-width="4.13858" stroke-miterlimit="10" stroke-linecap="round"/>
</svg>
